<?xml version="1.0" encoding="UTF-8"?>
<svg id="Layer_1" data-name="Layer 1" xmlns="http://www.w3.org/2000/svg" viewBox="0 0 148.03 85.73">
  <defs>
    <style>
      .cls-1 {
        stroke-width: 3px;
      }

      .cls-1, .cls-2 {
        fill: none;
        stroke: #fff;
        stroke-miterlimit: 10;
      }

      .cls-3 {
        fill: #fff;
        stroke-width: 0px;
      }

      .cls-2 {
        stroke-width: 2.35px;
      }
    </style>
  </defs>
  <g>
    <g>
      <polygon class="cls-1" points="115.17 47.11 128.32 15.38 140.92 47.11 115.17 47.11"/>
      <path class="cls-1" d="m129.22,12.93c5.03,11.45,10.05,22.9,15.08,34.35-9.71-.06-19.42-.11-29.13-.17,4.68-11.39,9.37-22.79,14.05-34.18Z"/>
    </g>
    <g>
      <path class="cls-3" d="m4.42,9.99c3.08-.46,6.74-.81,10.75-.81,7.27,0,12.44,1.69,15.87,4.88,3.49,3.2,5.52,7.73,5.52,14.07s-1.98,11.62-5.64,15.23c-3.66,3.66-9.71,5.64-17.32,5.64-3.6,0-6.63-.17-9.18-.46V9.99Zm5.06,34.64c1.28.23,3.14.29,5.11.29,10.81,0,16.68-6.04,16.68-16.62.06-9.24-5.17-15.11-15.87-15.11-2.62,0-4.59.23-5.93.52v30.92Z"/>
      <path class="cls-3" d="m63.41,30.28h-15.23v14.12h16.97v4.24h-22.03V9.47h21.16v4.24h-16.1v12.38h15.23v4.18Z"/>
      <path class="cls-3" d="m71.71,9.47h5.06v34.93h16.74v4.24h-21.8V9.47Z"/>
      <path class="cls-3" d="m101.47,13.77h-11.91v-4.3h29v4.3h-11.97v34.87h-5.12V13.77Z"/>
    </g>
  </g>
  <g>
    <path class="cls-3" d="m11.06,58.87h-6.48v-2.34h15.77v2.34h-6.51v18.96h-2.78v-18.96Z"/>
    <path class="cls-3" d="m60.55,67.84h-8.28v7.68h9.23v2.31h-11.98v-21.3h11.5v2.31h-8.75v6.73h8.28v2.28Z"/>
  </g>
  <g>
    <path class="cls-3" d="m20.65,60.81v17.02h-2.2v-17.02h2.2Z"/>
    <path class="cls-3" d="m42.09,70.35c-.13-2.37-.28-5.23-.25-7.35h-.08c-.58,1.99-1.29,4.12-2.15,6.46l-3,8.26h-1.67l-2.75-8.11c-.81-2.4-1.49-4.6-1.97-6.62h-.05c-.05,2.12-.18,4.97-.33,7.53l-.45,7.3h-2.1l1.19-17.02h2.8l2.9,8.23c.71,2.1,1.29,3.96,1.72,5.73h.08c.43-1.72,1.04-3.59,1.79-5.73l3.03-8.23h2.8l1.06,17.02h-2.15l-.43-7.47Z"/>
  </g>
  <g>
    <path class="cls-3" d="m76.32,58.87h-6.48v-2.34h15.77v2.34h-6.51v18.96h-2.78v-18.96Z"/>
    <path class="cls-3" d="m145.91,67.84h-8.28v7.68h9.23v2.31h-11.98v-21.3h11.5v2.31h-8.75v6.73h8.28v2.28Z"/>
  </g>
  <line class="cls-2" x1="4.42" y1="57.7" x2="61.5" y2="57.7"/>
  <g>
    <path class="cls-3" d="m87.95,72.48l-1.77,5.35h-2.27l5.78-17.02h2.65l5.81,17.02h-2.35l-1.82-5.35h-6.04Zm5.58-1.72l-1.67-4.9c-.38-1.11-.63-2.12-.88-3.11h-.05c-.25,1.01-.53,2.05-.86,3.08l-1.67,4.92h5.13Z"/>
    <path class="cls-3" d="m103.91,61.04c.96-.2,2.48-.35,4.02-.35,2.2,0,3.61.38,4.67,1.24.88.66,1.41,1.67,1.41,3,0,1.64-1.09,3.08-2.88,3.74v.05c1.62.4,3.51,1.74,3.51,4.27,0,1.46-.58,2.58-1.44,3.41-1.19,1.09-3.11,1.59-5.88,1.59-1.51,0-2.68-.1-3.41-.2v-16.74Zm2.2,6.97h2c2.32,0,3.69-1.21,3.69-2.85,0-2-1.51-2.78-3.74-2.78-1.01,0-1.59.08-1.94.15v5.48Zm0,8.16c.43.08,1.06.1,1.84.1,2.27,0,4.37-.83,4.37-3.31,0-2.32-1.99-3.28-4.39-3.28h-1.82v6.49Z"/>
    <path class="cls-3" d="m120.86,60.81h2.2v15.18h7.27v1.84h-9.47v-17.02Z"/>
  </g>
  <line class="cls-2" x1="69.84" y1="57.7" x2="146.26" y2="57.7"/>
</svg>