<svg version="1.1" id="Layer_1" xmlns="http://www.w3.org/2000/svg" xmlns:xlink="http://www.w3.org/1999/xlink" x="0px" y="0px"
	 width="100%" viewBox="0 0 512 512" enable-background="new 0 0 512 512" xml:space="preserve">
<path fill="#40A351" opacity="1.000000" stroke="none" 
	d="
M341.000000,513.000000 
	C227.360947,513.000000 114.221886,513.000000 1.041413,513.000000 
	C1.041413,342.402588 1.041413,171.805161 1.041413,1.103867 
	C171.555725,1.103867 342.111542,1.103867 512.833679,1.103867 
	C512.833679,171.666534 512.833679,342.333252 512.833679,513.000000 
	C455.805145,513.000000 398.652557,513.000000 341.000000,513.000000 
M316.499817,457.266815 
	C364.224518,457.266815 411.949219,457.266815 460.484924,457.266815 
	C392.529968,323.467072 325.022797,190.549026 257.036163,56.686855 
	C188.955338,190.740875 121.441360,323.678772 53.597176,457.266846 
	C141.543793,457.266846 228.521774,457.266846 316.499817,457.266815 
z"/>
<path fill="#FEFFFE" opacity="1.000000" stroke="none" 
	d="
M315.999786,457.266846 
	C228.521774,457.266846 141.543793,457.266846 53.597176,457.266846 
	C121.441360,323.678772 188.955338,190.740875 257.036163,56.686855 
	C325.022797,190.549026 392.529968,323.467072 460.484924,457.266815 
	C411.949219,457.266815 364.224518,457.266815 315.999786,457.266846 
M278.757812,215.740860 
	C265.899689,191.091431 253.041580,166.442017 239.808136,141.073059 
	C187.722092,241.171951 136.182343,340.220978 84.485413,439.572083 
	C188.549347,439.572083 291.575043,439.572083 395.200928,439.572083 
	C356.307495,364.842834 317.682800,290.629913 278.757812,215.740860 
z"/>
<path fill="#41A352" opacity="1.000000" stroke="none" 
	d="
M278.907959,216.078918 
	C317.682800,290.629913 356.307495,364.842834 395.200928,439.572083 
	C291.575043,439.572083 188.549347,439.572083 84.485413,439.572083 
	C136.182343,340.220978 187.722092,241.171951 239.808136,141.073059 
	C253.041580,166.442017 265.899689,191.091431 278.907959,216.078918 
M230.355591,251.327286 
	C229.235123,253.750671 227.159164,256.166473 227.139923,258.598572 
	C226.913254,287.247986 226.972610,315.899902 227.048523,344.550903 
	C227.053162,346.300201 227.358826,348.382019 228.322815,349.744080 
	C238.420563,364.011902 248.597061,378.226990 259.021698,392.256042 
	C260.118622,393.732330 263.216461,394.973236 264.918579,394.529694 
	C271.924774,392.704102 274.198486,385.451874 269.969177,379.551819 
	C261.821564,368.185608 253.512360,356.932465 245.551483,345.437592 
	C243.982895,343.172699 242.936386,340.034912 242.914764,337.289703 
	C242.716705,312.138153 242.799347,286.984406 242.797485,261.831299 
	C242.796738,251.527222 241.620972,250.441116 230.355591,251.327286 
z"/>
<path fill="#FCFDFC" opacity="1.000000" stroke="none" 
	d="
M230.757812,251.190491 
	C241.620972,250.441116 242.796738,251.527222 242.797485,261.831299 
	C242.799347,286.984406 242.716705,312.138153 242.914764,337.289703 
	C242.936386,340.034912 243.982895,343.172699 245.551483,345.437592 
	C253.512360,356.932465 261.821564,368.185608 269.969177,379.551819 
	C274.198486,385.451874 271.924774,392.704102 264.918579,394.529694 
	C263.216461,394.973236 260.118622,393.732330 259.021698,392.256042 
	C248.597061,378.226990 238.420563,364.011902 228.322815,349.744080 
	C227.358826,348.382019 227.053162,346.300201 227.048523,344.550903 
	C226.972610,315.899902 226.913254,287.247986 227.139923,258.598572 
	C227.159164,256.166473 229.235123,253.750671 230.757812,251.190491 
z"/>
</svg>