<svg version="1.1" id="Layer_1" xmlns="http://www.w3.org/2000/svg" xmlns:xlink="http://www.w3.org/1999/xlink" x="0px" y="0px"
	 width="100%" viewBox="0 0 512 512" enable-background="new 0 0 512 512" xml:space="preserve">
<path fill="#40A351" opacity="1.000000" stroke="none" 
	d="
M355.000000,513.000000 
	C236.695419,513.000000 118.890823,513.000000 1.043120,513.000000 
	C1.043120,342.403717 1.043120,171.807434 1.043120,1.105574 
	C171.554596,1.105574 342.109253,1.105574 512.831970,1.105574 
	C512.831970,171.666534 512.831970,342.333252 512.831970,513.000000 
	C460.474030,513.000000 407.987030,513.000000 355.000000,513.000000 
M249.595810,47.049229 
	C191.454819,161.503067 133.313828,275.956909 74.935745,390.877441 
	C196.580780,390.877441 317.549957,390.877441 439.131897,390.877441 
	C378.412567,271.326355 317.940094,152.261398 257.048431,32.371059 
	C254.288849,37.798809 252.107620,42.088989 249.595810,47.049229 
z"/>
<path fill="#FEFEFE" opacity="1.000000" stroke="none" 
	d="
M249.761108,46.714199 
	C252.107620,42.088989 254.288849,37.798809 257.048431,32.371059 
	C317.940094,152.261398 378.412567,271.326355 439.131897,390.877441 
	C317.549957,390.877441 196.580780,390.877441 74.935745,390.877441 
	C133.313828,275.956909 191.454819,161.503067 249.761108,46.714199 
M232.998184,124.473167 
	C189.575974,207.919479 146.153778,291.365784 102.501892,375.253479 
	C195.581421,375.253479 287.757294,375.253479 380.763245,375.253479 
	C334.274750,285.923553 288.121368,197.237564 241.649826,107.940254 
	C238.568741,113.805305 235.941620,118.806244 232.998184,124.473167 
z"/>
<path fill="#41A452" opacity="1.000000" stroke="none" 
	d="
M233.156342,124.140175 
	C235.941620,118.806244 238.568741,113.805305 241.649826,107.940254 
	C288.121368,197.237564 334.274750,285.923553 380.763245,375.253479 
	C287.757294,375.253479 195.581421,375.253479 102.501892,375.253479 
	C146.153778,291.365784 189.575974,207.919479 233.156342,124.140175 
M230.085037,262.499969 
	C230.085159,271.324371 229.999985,280.150238 230.148483,288.972137 
	C230.183365,291.043793 230.437363,293.501678 231.559204,295.103394 
	C240.436401,307.778015 249.452103,320.360168 258.720612,332.749786 
	C259.767761,334.149536 262.981232,335.198425 264.616577,334.661896 
	C270.715607,332.660736 272.326904,326.764862 268.589172,321.528717 
	C261.434723,311.506104 254.049759,301.642670 247.125458,291.464874 
	C245.404388,288.935150 244.270004,285.465149 244.238586,282.413269 
	C244.002075,259.438812 244.126633,236.460831 244.095322,213.484009 
	C244.087692,207.892456 242.334213,206.127533 237.120377,206.142395 
	C231.993958,206.156998 230.120956,208.032867 230.103958,213.548264 
	C230.054703,229.532028 230.085602,245.516037 230.085037,262.499969 
z"/>
<path fill="#FCFEFC" opacity="1.000000" stroke="none" 
	d="
M230.085037,261.999939 
	C230.085602,245.516037 230.054703,229.532028 230.103958,213.548264 
	C230.120956,208.032867 231.993958,206.156998 237.120377,206.142395 
	C242.334213,206.127533 244.087692,207.892456 244.095322,213.484009 
	C244.126633,236.460831 244.002075,259.438812 244.238586,282.413269 
	C244.270004,285.465149 245.404388,288.935150 247.125458,291.464874 
	C254.049759,301.642670 261.434723,311.506104 268.589172,321.528717 
	C272.326904,326.764862 270.715607,332.660736 264.616577,334.661896 
	C262.981232,335.198425 259.767761,334.149536 258.720612,332.749786 
	C249.452103,320.360168 240.436401,307.778015 231.559204,295.103394 
	C230.437363,293.501678 230.183365,291.043793 230.148483,288.972137 
	C229.999985,280.150238 230.085159,271.324371 230.085037,261.999939 
z"/>
</svg>